<svg width="141" height="75" viewBox="0 0 141 75" fill="none" xmlns="http://www.w3.org/2000/svg">
<rect x="125.806" y="30.2422" width="13.3061" height="13.3061" fill="#603B88"/>
<rect x="128.226" y="29.0319" width="8.46749" height="1.20964" fill="#603B88"/>
<rect x="140.321" y="32.6609" width="8.46749" height="1.20964" transform="rotate(90 140.321 32.6609)" fill="#603B88"/>
<rect x="128.226" y="43.5482" width="8.46749" height="1.20964" fill="#603B88"/>
<rect x="125.806" y="59.2733" width="13.3061" height="13.3061" fill="#603B88"/>
<rect x="128.226" y="58.063" width="8.46749" height="1.20964" fill="#603B88"/>
<rect x="140.321" y="61.692" width="8.46749" height="1.20964" transform="rotate(90 140.321 61.692)" fill="#603B88"/>
<rect x="128.226" y="72.5793" width="8.46749" height="1.20964" fill="#603B88"/>
<rect x="125.806" y="1.21014" width="13.3061" height="13.3061" fill="#603B88"/>
<rect x="128.226" y="-0.000152588" width="8.46749" height="1.20964" fill="#603B88"/>
<rect x="140.321" y="3.62891" width="8.46749" height="1.20964" transform="rotate(90 140.321 3.62891)" fill="#603B88"/>
<rect x="128.226" y="14.5161" width="8.46749" height="1.20964" fill="#603B88"/>
<rect x="1.20996" y="14.5167" width="13.3061" height="13.3061" transform="rotate(-90 1.20996 14.5167)" fill="#603B88"/>
<rect y="12.098" width="8.46749" height="1.20964" transform="rotate(-90 0 12.098)" fill="#603B88"/>
<rect x="3.62988" y="0.000427246" width="8.46749" height="1.20964" fill="#603B88"/>
<rect x="14.5156" y="12.098" width="8.46749" height="1.20964" transform="rotate(-90 14.5156 12.098)" fill="#603B88"/>
<rect width="13.3061" height="13.3061" transform="matrix(-4.37114e-08 1 1 4.37114e-08 1.20996 60.4825)" fill="#603B88"/>
<rect width="8.46749" height="1.20964" transform="matrix(-4.37114e-08 1 1 4.37114e-08 0 62.9013)" fill="#603B88"/>
<rect width="8.46749" height="1.20964" transform="matrix(1 0 0 -1 3.62988 74.9988)" fill="#603B88"/>
<rect width="8.46749" height="1.20964" transform="matrix(-4.37114e-08 1 1 4.37114e-08 14.5156 62.9013)" fill="#603B88"/>
<rect width="13.3061" height="13.3061" transform="matrix(-1 -8.74228e-08 -8.74228e-08 1 35.6826 60.4814)" fill="#603B88"/>
<rect width="8.46749" height="1.20964" transform="matrix(-1 -8.74228e-08 -8.74228e-08 1 33.2627 59.2711)" fill="#603B88"/>
<rect width="8.46749" height="1.20964" transform="matrix(-4.37114e-08 1 1 4.37114e-08 21.167 62.9001)" fill="#603B88"/>
<rect width="8.46749" height="1.20964" transform="matrix(-1 -8.74228e-08 -8.74228e-08 1 33.2627 73.7874)" fill="#603B88"/>
<rect x="135.479" y="3.62906" width="8.46749" height="55.6435" transform="rotate(90 135.479 3.62906)" fill="#603B88"/>
<rect x="135.868" y="32.6086" width="8.69553" height="110.868" transform="rotate(90 135.868 32.6086)" fill="#603B88"/>
<rect x="135.479" y="61.6915" width="8.46749" height="55.6435" transform="rotate(90 135.479 61.6915)" fill="#603B88"/>
<rect x="12.0957" y="68.9496" width="8.46749" height="62.9013" transform="rotate(-180 12.0957 68.9496)" fill="#603B88"/>
<rect x="33.6953" y="34.782" width="8.69552" height="24.9996" transform="rotate(-180 33.6953 34.782)" fill="#603B88"/>
<rect x="25" y="13.0432" width="9.78246" height="42.3907" transform="rotate(-90 25 13.0432)" fill="#603B88"/>
<rect x="34.6855" y="70.9482" width="7.88311" height="40.9922" transform="rotate(-90 34.6855 70.9482)" fill="#603B88"/>
<rect width="9.45974" height="58.335" transform="matrix(-1 8.74228e-08 8.74228e-08 1 75.6787 12.6129)" fill="#603B88"/>
<rect x="27.8232" y="35.0795" width="12.0964" height="2.41928" fill="#603B88"/>
<rect x="30.2432" y="37.4985" width="12.0964" height="2.41928" fill="#603B88"/>
<rect width="12.0964" height="2.41928" transform="matrix(-1 0 0 1 42.3379 4.84122)" fill="#603B88"/>
<rect width="12.0964" height="2.41928" transform="matrix(-1 0 0 1 39.918 7.26022)" fill="#603B88"/>
<rect x="53.2607" y="4.34775" width="16.3041" height="3.26082" fill="#603B88"/>
<rect x="57.2305" y="6.30594" width="14.5073" height="3.15324" fill="#603B88"/>
<rect x="59.9121" y="7.88208" width="14.0007" height="4.72987" fill="#603B88"/>
<rect x="66.2168" y="9.45993" width="9.45973" height="3.9959" fill="#603B88"/>
</svg>
