<svg xmlns="http://www.w3.org/2000/svg" viewBox="0 -0.5 64 64" shape-rendering="crispEdges">
<metadata>Made with Pixels to Svg https://codepen.io/shshaw/pen/XbxvNj</metadata>
<path stroke="#bf774f" d="M27 19h1" />
<path stroke="#995d55" d="M28 19h1" />
<path stroke="#633c2b" d="M29 19h3" />
<path stroke="#5c3e33" d="M32 19h1" />
<path stroke="#a25a5b" d="M25 20h1" />
<path stroke="#9d5b4f" d="M26 20h1" />
<path stroke="#c68b61" d="M27 20h2M25 21h5M24 22h6M25 23h4" />
<path stroke="#c0724e" d="M29 20h1M23 24h1" />
<path stroke="#c56f4e" d="M30 20h2" />
<path stroke="#c3714c" d="M32 20h1M30 21h4M30 22h5M30 23h6M27 24h2M30 24h5M36 24h1M26 25h3M30 25h6M22 26h1M26 26h3M30 26h5M36 26h1M26 27h3M30 27h6M29 28h6M36 28h1M30 29h4M35 29h1M31 30h4M32 31h2M35 31h1M31 32h2M31 33h1" />
<path stroke="#5f4024" d="M33 20h1" />
<path stroke="#563f31" d="M34 20h1" />
<path stroke="#9c5d54" d="M24 21h1" />
<path stroke="#9c5b59" d="M34 21h1M35 22h1M35 24h1M36 25h1M35 26h1M37 26h1M37 27h1M35 28h1M37 28h1M34 29h1M36 29h2M35 30h3M34 31h1M30 32h1M33 32h2M25 33h6M33 33h1" />
<path stroke="#050102" d="M35 21h1" />
<path stroke="#9c5b57" d="M23 22h1" />
<path stroke="#000201" d="M36 22h1" />
<path stroke="#945955" d="M22 23h1" />
<path stroke="#c3714b" d="M23 23h2M24 24h1M23 25h2M23 26h2M22 27h3M22 28h2M22 29h1M22 30h1M22 31h1M31 31h1" />
<path stroke="#c77347" d="M29 23h1" />
<path stroke="#5f4232" d="M36 23h1" />
<path stroke="#653f32" d="M22 24h1" />
<path stroke="#e5eff1" d="M25 24h1" />
<path stroke="#c37149" d="M26 24h1" />
<path stroke="#f3fbfd" d="M29 24h1" />
<path stroke="#030200" d="M37 24h1" />
<path stroke="#643f2d" d="M22 25h1" />
<path stroke="#000608" d="M25 25h1" />
<path stroke="#00030a" d="M29 25h1" />
<path stroke="#060000" d="M37 25h1M37 31h1M22 32h1M40 32h1M41 33h1" />
<path stroke="#9a5e5e" d="M21 26h1" />
<path stroke="#000106" d="M25 26h1" />
<path stroke="#000405" d="M29 26h1" />
<path stroke="#000000" d="M38 26h1" />
<path stroke="#030207" d="M21 27h1" />
<path stroke="#b76a40" d="M25 27h1M29 27h1" />
<path stroke="#9b5a5e" d="M36 27h1" />
<path stroke="#030104" d="M38 27h1M38 28h1M29 35h1" />
<path stroke="#6e613e" d="M39 27h1" />
<path stroke="#685f38" d="M40 27h1" />
<path stroke="#645d43" d="M41 27h1" />
<path stroke="#686039" d="M19 28h2" />
<path stroke="#010000" d="M21 28h1" />
<path stroke="#b54456" d="M24 28h1" />
<path stroke="#7b2c31" d="M25 28h1" />
<path stroke="#7b2727" d="M26 28h1" />
<path stroke="#792825" d="M27 28h1" />
<path stroke="#79272d" d="M28 28h1" />
<path stroke="#70623d" d="M39 28h1" />
<path stroke="#ac9c78" d="M40 28h1M44 30h2M43 31h1M36 32h1M43 32h1M35 33h1M35 34h2M16 35h1M35 35h1M24 36h1M23 37h4M27 38h2" />
<path stroke="#b2aa83" d="M41 28h1" />
<path stroke="#6d634a" d="M42 28h1" />
<path stroke="#918c66" d="M18 29h1" />
<path stroke="#ab9d78" d="M19 29h2" />
<path stroke="#000207" d="M21 29h1M21 30h1" />
<path stroke="#b0474e" d="M23 29h1" />
<path stroke="#e58a87" d="M24 29h1" />
<path stroke="#e48b85" d="M25 29h1M25 30h1" />
<path stroke="#e66659" d="M26 29h1M26 30h1" />
<path stroke="#e3675f" d="M27 29h1M27 30h1" />
<path stroke="#ba4653" d="M28 29h1M28 30h1" />
<path stroke="#802b2e" d="M29 29h1" />
<path stroke="#040100" d="M38 29h1" />
<path stroke="#6f613c" d="M39 29h1M30 34h1" />
<path stroke="#ad9d79" d="M40 29h1" />
<path stroke="#aa9b7a" d="M41 29h1" />
<path stroke="#a1936e" d="M42 29h1" />
<path stroke="#6e623a" d="M43 29h1" />
<path stroke="#6d6139" d="M44 29h2" />
<path stroke="#8d8060" d="M17 30h1" />
<path stroke="#aea17f" d="M18 30h1" />
<path stroke="#aa9e78" d="M19 30h2M22 34h1M42 36h1" />
<path stroke="#792827" d="M23 30h1" />
<path stroke="#e68b88" d="M24 30h1" />
<path stroke="#b7484e" d="M29 30h1" />
<path stroke="#7d2726" d="M30 30h1" />
<path stroke="#020200" d="M38 30h1" />
<path stroke="#6e623c" d="M39 30h1" />
<path stroke="#6e6441" d="M40 30h1" />
<path stroke="#908361" d="M41 30h1M37 37h1" />
<path stroke="#928563" d="M42 30h1M36 36h2" />
<path stroke="#70643e" d="M43 30h1" />
<path stroke="#6c5f3d" d="M46 30h1" />
<path stroke="#6c623f" d="M47 30h1" />
<path stroke="#8f7e60" d="M17 31h1" />
<path stroke="#928260" d="M18 31h1" />
<path stroke="#6d6439" d="M19 31h2" />
<path stroke="#040000" d="M21 31h1M41 34h1" />
<path stroke="#77271c" d="M23 31h1" />
<path stroke="#b0404c" d="M24 31h1" />
<path stroke="#df7975" d="M25 31h1" />
<path stroke="#ac4c58" d="M26 31h1" />
<path stroke="#ab4b57" d="M27 31h2" />
<path stroke="#772225" d="M29 31h1" />
<path stroke="#76261f" d="M30 31h1" />
<path stroke="#6d664c" d="M36 31h1" />
<path stroke="#090000" d="M38 31h1M23 32h1" />
<path stroke="#67623a" d="M39 31h1" />
<path stroke="#73715a" d="M40 31h1" />
<path stroke="#665d3c" d="M41 31h1" />
<path stroke="#71633e" d="M42 31h1" />
<path stroke="#ac9c7b" d="M44 31h2M27 36h1M27 37h1" />
<path stroke="#908265" d="M46 31h1M46 32h1M16 33h1M38 33h2M38 34h2M38 35h2M31 36h2M30 37h3" />
<path stroke="#918265" d="M47 31h1" />
<path stroke="#5a593d" d="M48 31h1" />
<path stroke="#8b7b5a" d="M17 32h1" />
<path stroke="#cdbe95" d="M18 32h1" />
<path stroke="#cec091" d="M19 32h2" />
<path stroke="#645633" d="M21 32h1" />
<path stroke="#7a251e" d="M24 32h1" />
<path stroke="#030002" d="M25 32h1" />
<path stroke="#080000" d="M26 32h3" />
<path stroke="#7a282e" d="M29 32h1" />
<path stroke="#726542" d="M35 32h1" />
<path stroke="#b2a07c" d="M37 32h1" />
<path stroke="#918763" d="M38 32h1" />
<path stroke="#685d3d" d="M39 32h1" />
<path stroke="#736950" d="M41 32h1" />
<path stroke="#978867" d="M42 32h1" />
<path stroke="#ae9e7d" d="M44 32h1" />
<path stroke="#aa9a79" d="M45 32h1M28 36h1" />
<path stroke="#918360" d="M47 32h1" />
<path stroke="#0b0700" d="M48 32h1" />
<path stroke="#686441" d="M15 33h1" />
<path stroke="#cdbf90" d="M17 33h1" />
<path stroke="#d1be94" d="M18 33h3M26 35h1" />
<path stroke="#b1a27b" d="M21 33h1" />
<path stroke="#8e7f60" d="M22 33h1" />
<path stroke="#938666" d="M23 33h1" />
<path stroke="#020003" d="M24 33h1" />
<path stroke="#9e5a57" d="M32 33h1" />
<path stroke="#070000" d="M34 33h1" />
<path stroke="#ac9d76" d="M36 33h1" />
<path stroke="#b0a07e" d="M37 33h1M37 34h1" />
<path stroke="#5f5440" d="M40 33h1" />
<path stroke="#908b65" d="M42 33h1" />
<path stroke="#ab9d7a" d="M43 33h1" />
<path stroke="#a59b77" d="M44 33h1" />
<path stroke="#8f836b" d="M45 33h1" />
<path stroke="#867a6e" d="M46 33h1" />
<path stroke="#90816a" d="M47 33h1" />
<path stroke="#110900" d="M48 33h1" />
<path stroke="#5e583e" d="M49 33h1" />
<path stroke="#615c3e" d="M50 33h1" />
<path stroke="#6b6438" d="M15 34h1" />
<path stroke="#908363" d="M16 34h1" />
<path stroke="#cdbf92" d="M17 34h1" />
<path stroke="#d0bf94" d="M18 34h1M20 34h1" />
<path stroke="#d0bf93" d="M19 34h1" />
<path stroke="#b1a17d" d="M21 34h1" />
<path stroke="#6b6044" d="M23 34h1" />
<path stroke="#050000" d="M24 34h2" />
<path stroke="#847d53" d="M26 34h4M33 37h1" />
<path stroke="#050100" d="M31 34h1" />
<path stroke="#020100" d="M32 34h1M46 34h1" />
<path stroke="#030007" d="M33 34h1" />
<path stroke="#ae9d6f" d="M34 34h1" />
<path stroke="#8e8671" d="M40 34h1" />
<path stroke="#69643e" d="M42 34h1" />
<path stroke="#6b6245" d="M43 34h1" />
<path stroke="#90816c" d="M44 34h1" />
<path stroke="#878173" d="M45 34h1" />
<path stroke="#877b6b" d="M47 34h1" />
<path stroke="#a99b74" d="M48 34h1" />
<path stroke="#a89f78" d="M49 34h1" />
<path stroke="#9c8c68" d="M17 35h1" />
<path stroke="#cabb94" d="M18 35h1" />
<path stroke="#c6b78e" d="M19 35h1" />
<path stroke="#aa9a76" d="M20 35h1" />
<path stroke="#a69c78" d="M21 35h1" />
<path stroke="#a0968c" d="M22 35h1" />
<path stroke="#0a0600" d="M23 35h1" />
<path stroke="#96876a" d="M24 35h1" />
<path stroke="#d4c196" d="M25 35h1" />
<path stroke="#c6b78c" d="M27 35h1" />
<path stroke="#af9f7b" d="M28 35h1" />
<path stroke="#aca174" d="M30 35h1" />
<path stroke="#a79a78" d="M31 35h1" />
<path stroke="#928565" d="M32 35h1" />
<path stroke="#0d0500" d="M33 35h1" />
<path stroke="#aca37a" d="M34 35h1" />
<path stroke="#a99b76" d="M36 35h1" />
<path stroke="#ab9e7c" d="M37 35h1M28 39h1" />
<path stroke="#857a5c" d="M40 35h1" />
<path stroke="#181000" d="M41 35h1" />
<path stroke="#9b9267" d="M42 35h1" />
<path stroke="#645e44" d="M43 35h1" />
<path stroke="#0e0a00" d="M44 35h1" />
<path stroke="#1d1600" d="M45 35h1" />
<path stroke="#c1b396" d="M46 35h1" />
<path stroke="#a6a08a" d="M47 35h1" />
<path stroke="#b1ae9b" d="M18 36h1" />
<path stroke="#aa9e76" d="M19 36h1" />
<path stroke="#968a62" d="M20 36h1" />
<path stroke="#93835f" d="M21 36h1" />
<path stroke="#000004" d="M22 36h1" />
<path stroke="#988769" d="M23 36h1" />
<path stroke="#c8b992" d="M25 36h1" />
<path stroke="#c9ba91" d="M26 36h1" />
<path stroke="#030004" d="M29 36h1" />
<path stroke="#a5977a" d="M30 36h1" />
<path stroke="#90876a" d="M33 36h1" />
<path stroke="#5f5845" d="M34 36h1" />
<path stroke="#a59876" d="M35 36h1M45 36h1" />
<path stroke="#958c6f" d="M38 36h1" />
<path stroke="#837e68" d="M39 36h1" />
<path stroke="#918462" d="M40 36h1M31 38h1" />
<path stroke="#746842" d="M41 36h1" />
<path stroke="#ad9f82" d="M43 36h1" />
<path stroke="#c1b79e" d="M44 36h1" />
<path stroke="#afa089" d="M20 37h1" />
<path stroke="#998965" d="M21 37h1" />
<path stroke="#080808" d="M22 37h1" />
<path stroke="#968665" d="M28 37h1" />
<path stroke="#080309" d="M29 37h1" />
<path stroke="#170f0c" d="M34 37h1" />
<path stroke="#948765" d="M35 37h2M29 38h2" />
<path stroke="#5f5740" d="M38 37h1" />
<path stroke="#0d0700" d="M39 37h1" />
<path stroke="#6d603e" d="M40 37h1" />
<path stroke="#b3a781" d="M41 37h1" />
<path stroke="#a69a74" d="M42 37h1" />
<path stroke="#938965" d="M22 38h1" />
<path stroke="#aaa391" d="M23 38h1" />
<path stroke="#aba291" d="M24 38h1" />
<path stroke="#ada179" d="M25 38h1" />
<path stroke="#aca68e" d="M26 38h1" />
<path stroke="#968a7c" d="M32 38h1" />
<path stroke="#736b47" d="M33 38h1" />
<path stroke="#8d8a7b" d="M34 38h1" />
<path stroke="#a9a58c" d="M35 38h1" />
<path stroke="#aaa48a" d="M36 38h1" />
<path stroke="#ac9d80" d="M37 38h1" />
<path stroke="#a79d82" d="M38 38h1" />
<path stroke="#b09f81" d="M39 38h1" />
<path stroke="#a59e8b" d="M40 38h1" />
<path stroke="#adac97" d="M25 39h1" />
<path stroke="#a5a08a" d="M27 39h1" />
<path stroke="#a9a286" d="M29 39h1" />
<path stroke="#a7a27c" d="M30 39h1" />
<path stroke="#a7a18b" d="M31 39h1" />
<path stroke="#959782" d="M33 39h1" />
<path stroke="#aca996" d="M37 39h1" />
<path stroke="#a8a089" d="M27 40h1" />
<path stroke="#a4a681" d="M29 40h1" />
</svg>