<svg width="562" height="124" viewBox="0 0 562 124" fill="none" xmlns="http://www.w3.org/2000/svg">
<g filter="url(#filter0_d_1970_3967)">
<path d="M195.5 75.5V71H191V66.5H200V71H213.5V62H195.5V57.5H191V48.5H195.5V44H218V48.5H222.5V53H213.5V48.5H200V57.5H218V62H222.5V71H218V75.5H195.5ZM240.5 75.5V48.5H231.5V44H258.5V48.5H249.5V75.5H240.5ZM263 75.5V53H267.5V48.5H272V44H285.5V48.5H290V53H294.5V75.5H285.5V66.5H272V75.5H263ZM272 62H285.5V53H281V48.5H276.5V53H272V62ZM299 75.5V44H326V48.5H330.5V62H321.5V66.5H326V71H330.5V75.5H317V71H312.5V66.5H308V75.5H299ZM308 62H317V57.5H321.5V48.5H308V62ZM348.5 75.5V48.5H339.5V44H366.5V48.5H357.5V75.5H348.5Z" fill="white"/>
</g>
<rect x="4.41992" y="93.5001" width="2.92001" height="2.92001" fill="white" stroke="white"/>
<rect x="4.41992" y="97.4205" width="2.92001" height="2.92001" fill="white" stroke="white"/>
<rect x="555.02" y="93.5001" width="2.92001" height="2.92001" fill="white" stroke="white"/>
<rect x="555.02" y="97.4205" width="2.92001" height="2.92001" fill="white" stroke="white"/>
<rect x="8.33984" y="101.341" width="2.92001" height="2.92001" fill="white" stroke="white"/>
<rect x="12.2598" y="105.261" width="2.92001" height="2.92001" fill="white" stroke="white"/>
<rect x="16.1797" y="109.18" width="2.85904" height="2.92001" fill="white" stroke="white"/>
<rect x="20.0391" y="113.1" width="2.85904" height="2.92001" fill="white" stroke="white"/>
<rect x="31.5" y="120.5" width="499" height="3" fill="white" stroke="white"/>
<rect x="24.0195" y="117.02" width="2.92001" height="2.92001" fill="white" stroke="white"/>
<rect x="27.9395" y="117.02" width="2.92001" height="2.92001" fill="white" stroke="white"/>
<rect x="-0.5" y="0.5" width="2.92001" height="2.92001" transform="matrix(-1 0 0 1 553.52 100.841)" fill="white" stroke="white"/>
<rect x="-0.5" y="0.5" width="2.92001" height="2.92001" transform="matrix(-1 0 0 1 549.6 104.761)" fill="white" stroke="white"/>
<rect x="-0.5" y="0.5" width="2.92001" height="2.92001" transform="matrix(-1 0 0 1 545.68 108.68)" fill="white" stroke="white"/>
<rect x="-0.5" y="0.5" width="2.92001" height="2.92001" transform="matrix(-1 0 0 1 541.76 112.6)" fill="white" stroke="white"/>
<rect x="-0.5" y="0.5" width="2.92001" height="2.92001" transform="matrix(-1 0 0 1 537.84 116.521)" fill="white" stroke="white"/>
<rect x="-0.5" y="0.5" width="2.92001" height="2.92001" transform="matrix(-1 0 0 1 533.92 116.521)" fill="white" stroke="white"/>
<rect x="0.5" y="31.5" width="3" height="61" fill="white" stroke="white"/>
<rect x="558.5" y="31.5001" width="3" height="61" fill="white" stroke="white"/>
<rect x="0.5" y="-0.5" width="2.92001" height="2.92001" transform="matrix(1 0 0 -1 3.91992 30.3604)" fill="white" stroke="white"/>
<rect x="0.5" y="-0.5" width="2.92001" height="2.92001" transform="matrix(1 0 0 -1 3.91992 26.4399)" fill="white" stroke="white"/>
<rect x="0.5" y="-0.5" width="2.92001" height="2.92001" transform="matrix(1 0 0 -1 555 30.3602)" fill="white" stroke="white"/>
<rect x="0.5" y="-0.5" width="2.92001" height="2.92001" transform="matrix(1 0 0 -1 555 26.4393)" fill="white" stroke="white"/>
<rect x="0.5" y="-0.5" width="2.92001" height="2.92001" transform="matrix(1 0 0 -1 7.83984 22.5195)" fill="white" stroke="white"/>
<rect x="0.5" y="-0.5" width="2.92001" height="2.92001" transform="matrix(1 0 0 -1 11.7598 18.5992)" fill="white" stroke="white"/>
<rect x="0.5" y="-0.5" width="2.92001" height="2.92001" transform="matrix(1 0 0 -1 15.6797 14.6805)" fill="white" stroke="white"/>
<rect x="0.5" y="-0.5" width="2.92001" height="2.92001" transform="matrix(1 0 0 -1 19.5996 10.7601)" fill="white" stroke="white"/>
<rect x="0.5" y="-0.5" width="499" height="3" transform="matrix(1 0 0 -1 31 3)" fill="white" stroke="white"/>
<rect x="0.5" y="-0.5" width="2.92001" height="2.92001" transform="matrix(1 0 0 -1 23.5195 6.83984)" fill="white" stroke="white"/>
<rect x="0.5" y="-0.5" width="2.92001" height="2.92001" transform="matrix(1 0 0 -1 27.4395 6.83984)" fill="white" stroke="white"/>
<rect x="554.02" y="23.0195" width="2.92001" height="2.92001" transform="rotate(-180 554.02 23.0195)" fill="white" stroke="white"/>
<rect x="550.1" y="19.0992" width="2.92001" height="2.92001" transform="rotate(-180 550.1 19.0992)" fill="white" stroke="white"/>
<rect x="546.18" y="15.1797" width="2.92001" height="2.92001" transform="rotate(-180 546.18 15.1797)" fill="white" stroke="white"/>
<rect x="542.26" y="11.2598" width="2.92001" height="2.92001" transform="rotate(-180 542.26 11.2598)" fill="white" stroke="white"/>
<rect x="538.34" y="7.33984" width="2.92001" height="2.92001" transform="rotate(-180 538.34 7.33984)" fill="white" stroke="white"/>
<rect x="534.42" y="7.33984" width="2.92001" height="2.92001" transform="rotate(-180 534.42 7.33984)" fill="white" stroke="white"/>
<defs>
<filter id="filter0_d_1970_3967" x="191" y="44" width="176.5" height="35.5" filterUnits="userSpaceOnUse" color-interpolation-filters="sRGB">
<feFlood flood-opacity="0" result="BackgroundImageFix"/>
<feColorMatrix in="SourceAlpha" type="matrix" values="0 0 0 0 0 0 0 0 0 0 0 0 0 0 0 0 0 0 127 0" result="hardAlpha"/>
<feOffset dx="1" dy="4"/>
<feComposite in2="hardAlpha" operator="out"/>
<feColorMatrix type="matrix" values="0 0 0 0 0 0 0 0 0 0 0 0 0 0 0 0 0 0 1 0"/>
<feBlend mode="normal" in2="BackgroundImageFix" result="effect1_dropShadow_1970_3967"/>
<feBlend mode="normal" in="SourceGraphic" in2="effect1_dropShadow_1970_3967" result="shape"/>
</filter>
</defs>
</svg>
