<svg version="1.2" xmlns="http://www.w3.org/2000/svg" viewBox="0 0 567 134" width="567" height="134">
	<style>
		.s0 { fill: #000000 } 
		.s1 { fill: #ffffff } 
	</style>
	<path id="Layer copy" fill-rule="evenodd" class="s0" d="m5.3 133.9v-126.9h108.7v18.1h18.2v54.4h-18.2v18.1h-72.5v36.3zm36.3-54.4h54.4v-54.4h-54.4zm126.9 54.4v-18.1h-18.2v-90.6h18.2v-18.2h90.6v18.2h18.1v90.6h-18.1v18.1zm18.1-18.1h54.4v-90.6h-54.4zm108.8 18.1v-126.9h36.2v54.4h18.1v-18.1h18.2v-18.2h18.1v-18.1h36.2v18.1h-18.1v18.2h-18.1v18.1h-18.1v18.1h18.1v18.1h18.1v18.2h18.1v18.1h-54.3v-18.1h-18.2v-18.2h-18.1v36.3zm145 0v-126.9h126.9v18.1h-90.6v36.3h72.5v18.1h-72.5v36.3h90.6v18.1z"/>
	<path id="Layer" fill-rule="evenodd" class="s1" d="m0.3 126.9v-126.9h108.7v18.1h18.2v54.4h-18.2v18.1h-72.5v36.3zm36.3-54.4h54.4v-54.4h-54.4zm126.9 54.4v-18.1h-18.2v-90.7l18.2 0.1v-18.2h90.6v18.2h18.1v90.6h-18.1v18.1zm18.1-18.1h54.4v-90.6h-54.4zm108.8 18.1v-126.9h36.2v54.4h18.1v-18.1h18.2v-18.2h18.1v-18.1h36.2v18.1h-18.1v18.2h-18.1v18.1h-18.1v18.1h18.1v18.1h18.1v18.2h18.1v18.1h-54.3v-18.1h-18.2v-18.2h-18.1v36.3zm145 0v-126.9h126.9v18.1h-90.6v36.3h72.5v18.1h-72.5v36.3h90.6v18.1z"/>
</svg>