<svg version="1.2" xmlns="http://www.w3.org/2000/svg" viewBox="0 0 568 138" width="568" height="138">
	<style>
		.s0 { fill: #000000 } 
		.s1 { fill: #b22559 } 
		.s2 { fill: #ffffff } 
	</style>
	<path id="Layer copy 2" fill-rule="evenodd" class="s0" d="m5.8 138.3v-18.8h37.5v-93.8h-37.5v-18.7h112.5v18.7h-37.5v93.8h37.5v18.7zm131.2 0v-131.2h93.8v18.7h18.7v18.8h18.8v56.2h-18.8v18.8h-18.7v18.7zm37.5-18.7h37.5v-18.8h18.7v-56.2h-18.7v-18.8h-37.5zm112.5 18.8v-131.3h131.2v18.8h-93.7v37.5h75v18.7h-75v37.5h93.7v18.8z"/>
	<path id="Layer" fill-rule="evenodd" class="s1" d="m0.8 131.3l-0.1-18.8h37.5v-93.8h-37.5v-18.7h112.5v18.7h-37.5v93.8h37.5v18.7zm131.3 0v-131.2h93.7v18.7h18.8v18.8h18.7v56.2h-18.7v18.8h-18.8v18.7zm37.5-18.7h37.5v-18.8h18.8v-56.2h-18.8v-18.8h-37.5zm112.5 18.8v-131.3h131.3v18.8h-93.8v37.5h75v18.7h-75v37.5h93.8v18.8z"/>
	<path id="Layer copy" class="s0" d="m437 138.3v-37.5h18.8v-18.8h18.7v-18.7h-18.7v-18.8h-18.8v-37.5h37.5v37.5h18.8v18.8h18.7v-18.8h18.8v-37.5h37.5v37.5h-18.8v18.8h-18.7v18.7h18.7v18.8h18.8v37.5h-37.5v-37.5h-18.8v-18.8h-18.7v18.8h-18.8v37.5z"/>
	<path id="Layer" class="s2" d="m432 131.3v-37.6h18.8l-0.1-18.7h18.8v-18.8h-18.8v-18.7h-18.7v-37.5h37.5v37.5h18.8l-0.1 18.7h18.8v-18.7h18.7v-37.5h37.5v37.5h-18.7v18.7h-18.8v18.8h18.8v18.7h18.7v37.5h-37.5v-37.5h-18.7v-18.7h-18.8v18.7h-18.7v37.5z"/>
</svg>